<svg width="1208" height="637" viewBox="0 0 1208 637" fill="none" xmlns="http://www.w3.org/2000/svg">
<path d="M1.15628 587.079C-0.843705 575.283 5.95947 402.039 68.9878 258.595C125.565 130.016 257.132 56.7338 411.117 149.148C576.107 248.194 718.421 258.154 833.174 229.261C946.425 200.617 1021.74 114.306 1055.56 59.2691C1128.97 -59.666 1237.41 13.9014 1199.32 170.386C1181.35 243.178 1133.97 263.53 1051.87 271.083C966.046 278.978 839.253 262.22 663.389 296.373C493.784 329.439 302.923 408.852 195.599 509.934C81.3809 617.601 17.9009 690.005 1.15628 587.079Z" fill="url(#paint0_linear_43_2782)" fill-opacity="0.1"/>
<defs>
<linearGradient id="paint0_linear_43_2782" x1="1144.52" y1="493.492" x2="27.1431" y2="147.136" gradientUnits="userSpaceOnUse">
<stop stop-color="#72B480" stop-opacity="0.25"/>
<stop offset="1" stop-color="#F2AF29"/>
</linearGradient>
</defs>
</svg>
