<svg width="20" height="20" viewBox="0 0 20 20" fill="none" xmlns="http://www.w3.org/2000/svg">
<path d="M4.86215 4.38086L13.2687 15.6168H15.1706L6.76636 4.38086H4.86215Z" fill="white"/>
<path d="M17.6682 0H2.33178C1.04439 0 0 1.04439 0 2.33178V17.6682C0 18.9556 1.04439 20 2.33178 20H17.6682C18.9556 20 20 18.9556 20 17.6682V2.33178C20 1.04206 18.9556 0 17.6682 0ZM12.8178 16.514L8.99065 11.3972L4.25467 16.514H3.03972L8.4486 10.6706L3.07243 3.48365H7.21495L10.7383 8.19626L15.1005 3.48365H16.3178L11.2827 8.9229L16.9603 16.514H12.8178Z" fill="white"/>
</svg>
