<svg width="38" height="37" viewBox="0 0 38 37" fill="none" xmlns="http://www.w3.org/2000/svg">
<path d="M21.4791 13.875C20.202 13.875 19.1666 12.8397 19.1666 11.5625C19.1666 10.2853 20.202 9.25 21.4791 9.25C22.7563 9.25 23.7916 10.2853 23.7916 11.5625C23.7902 12.8391 22.7557 13.8736 21.4791 13.875Z" fill="#9AD8A7"/>
<path d="M29.9583 3.08301H8.37494C5.82371 3.09045 3.75739 5.15678 3.74994 7.70801V21.3672L9.73161 15.3855C11.5623 13.6434 14.4376 13.6434 16.2683 15.3855L20.695 19.8363L22.0633 18.4681C23.8723 16.6695 26.7942 16.6695 28.6033 18.4681L34.5833 24.448V7.70801C34.5758 5.15678 32.5095 3.09045 29.9583 3.08301ZM21.4791 13.8747C20.2019 13.8747 19.1666 12.8393 19.1666 11.5622C19.1666 10.285 20.2019 9.24967 21.4791 9.24967C22.7563 9.24967 23.7916 10.285 23.7916 11.5622C23.7902 12.8388 22.7557 13.8733 21.4791 13.8747Z" fill="#72B480" fill-opacity="0.25"/>
<path d="M16.2683 15.3857C14.4376 13.6436 11.5623 13.6436 9.73161 15.3857L3.74994 21.3673V29.2915C3.7574 31.8427 5.82373 33.909 8.37494 33.9165H29.9583C31.2149 33.916 32.4172 33.4039 33.2883 32.4982L16.2683 15.3857Z" fill="#72B480"/>
<path d="M34.5833 24.448L28.6033 18.468C26.7942 16.6695 23.8723 16.6695 22.0633 18.468L20.695 19.8363L33.2816 32.4911C34.1173 31.6359 34.5847 30.4871 34.5833 29.2913V24.448Z" fill="#9AD8A7"/>
</svg>
