<svg width="38" height="37" viewBox="0 0 38 37" fill="none" xmlns="http://www.w3.org/2000/svg">
<path d="M6.49996 24.6663C4.79708 24.6663 3.41663 23.2859 3.41663 21.583C3.41663 19.8801 4.79708 18.4997 6.49996 18.4997C8.20284 18.4997 9.58329 19.8801 9.58329 21.583C9.58109 23.285 8.20193 24.6641 6.49996 24.6663ZM6.49996 9.24967C4.79708 9.24967 3.41663 7.86922 3.41663 6.16634C3.41663 4.46346 4.79708 3.08301 6.49996 3.08301C8.20284 3.08301 9.58329 4.46346 9.58329 6.16634C9.58109 7.86831 8.20193 9.24747 6.49996 9.24967ZM21.9166 9.24967C20.2137 9.24967 18.8333 7.86922 18.8333 6.16634C18.8333 4.46346 20.2137 3.08301 21.9166 3.08301C23.6195 3.08301 25 4.46346 25 6.16634C24.9978 7.86831 23.6186 9.24747 21.9166 9.24967ZM21.9166 24.6663C20.2137 24.6663 18.8333 23.2859 18.8333 21.583C18.8333 19.8801 20.2137 18.4997 21.9166 18.4997C23.6195 18.4997 25 19.8801 25 21.583C24.9978 23.285 23.6186 24.6641 21.9166 24.6663Z" fill="#9AD8A7"/>
<path d="M15.75 33.9163C14.0471 33.9163 12.6666 32.5359 12.6666 30.833C12.6666 29.1301 14.0471 27.7497 15.75 27.7497C17.4528 27.7497 18.8333 29.1301 18.8333 30.833C18.8311 32.535 17.4519 33.9141 15.75 33.9163ZM15.75 18.4997C14.0471 18.4997 12.6666 17.1192 12.6666 15.4163C12.6666 13.7135 14.0471 12.333 15.75 12.333C17.4528 12.333 18.8333 13.7135 18.8333 15.4163C18.8311 17.1183 17.4519 18.4975 15.75 18.4997ZM31.1666 18.4997C29.4637 18.4997 28.0833 17.1192 28.0833 15.4163C28.0833 13.7135 29.4637 12.333 31.1666 12.333C32.8695 12.333 34.25 13.7135 34.25 15.4163C34.2478 17.1183 32.8686 18.4975 31.1666 18.4997ZM31.1666 33.9163C29.4637 33.9163 28.0833 32.5359 28.0833 30.833C28.0833 29.1301 29.4637 27.7497 31.1666 27.7497C32.8695 27.7497 34.25 29.1301 34.25 30.833C34.2478 32.535 32.8686 33.9141 31.1666 33.9163Z" fill="#72B480"/>
<path d="M19.2624 7.70833C18.6903 6.76016 18.6903 5.57317 19.2624 4.625H9.15424C9.72633 5.57317 9.72633 6.76016 9.15424 7.70833H19.2624ZM6.49998 18.5C7.04292 18.5031 7.57517 18.6512 8.04165 18.9291V8.82092C7.09348 9.39302 5.90648 9.39302 4.95831 8.82092V18.9291C5.42479 18.6512 5.95704 18.5031 6.49998 18.5Z" fill="#DAEBDE"/>
<path d="M31.1666 27.7504C31.7096 27.7535 32.2418 27.9016 32.7083 28.1794V18.0713C31.7602 18.6434 30.5731 18.6434 29.625 18.0713V28.1794C30.0915 27.9016 30.6237 27.7535 31.1666 27.7504ZM15.75 27.7504C16.2929 27.7535 16.8252 27.9016 17.2916 28.1794V18.0713C16.3435 18.6434 15.1565 18.6434 14.2083 18.0713V28.1794C14.6748 27.9016 15.207 27.7535 15.75 27.7504Z" fill="#9AD8A7"/>
<path d="M19.2624 20.042H17.2916V23.1253H19.2624C18.6903 22.1772 18.6903 20.9902 19.2624 20.042ZM14.2083 23.1253V20.042H9.15424C9.72633 20.9902 9.72633 22.1772 9.15424 23.1253H14.2083Z" fill="#DAEBDE"/>
<path d="M28.5124 29.2917H18.4042C18.9763 30.2398 18.9763 31.4268 18.4042 32.375H28.5124C27.9403 31.4268 27.9403 30.2398 28.5124 29.2917ZM28.5124 16.9583C27.9403 16.0102 27.9403 14.8232 28.5124 13.875H18.4042C18.9763 14.8232 18.9763 16.0102 18.4042 16.9583H28.5124Z" fill="#9AD8A7"/>
<path d="M23.4583 13.8754V8.82129C22.5102 9.39339 21.3232 9.39339 20.375 8.82129V13.8754H23.4583ZM20.375 16.9587V18.9294C21.3232 18.3573 22.5102 18.3573 23.4583 18.9294V16.9587H20.375Z" fill="#DAEBDE"/>
</svg>
