<svg width="37" height="37" viewBox="0 0 37 37" fill="none" xmlns="http://www.w3.org/2000/svg">
<path d="M9.24996 25.4372C8.18277 25.4372 7.13954 25.1207 6.2522 24.5278C5.36486 23.9349 4.67326 23.0922 4.26486 22.1062C3.85646 21.1203 3.74961 20.0354 3.95781 18.9887C4.16601 17.942 4.67991 16.9805 5.43453 16.2259C6.18915 15.4713 7.1506 14.9574 8.19729 14.7492C9.24398 14.541 10.3289 14.6478 11.3149 15.0562C12.3008 15.4646 13.1435 16.1562 13.7364 17.0436C14.3293 17.9309 14.6458 18.9741 14.6458 20.0413C14.6441 21.4719 14.075 22.8433 13.0635 23.8549C12.0519 24.8664 10.6805 25.4354 9.24996 25.4372Z" fill="#9AD8A7"/>
<path d="M13.3204 23.5437C12.8208 24.1368 12.1977 24.6136 11.4946 24.9406C10.7915 25.2677 10.0254 25.4371 9.24996 25.4371C8.47451 25.4371 7.70843 25.2677 7.00533 24.9406C6.30224 24.6136 5.67911 24.1368 5.17956 23.5437C4.06954 24.2319 3.15309 25.1915 2.51661 26.3319C1.88012 27.4724 1.54458 28.7561 1.54163 30.0622C1.54163 30.4711 1.70405 30.8632 1.99317 31.1523C2.28229 31.4414 2.67442 31.6038 3.08329 31.6038H15.4166C15.8255 31.6038 16.2176 31.4414 16.5067 31.1523C16.7959 30.8632 16.9583 30.4711 16.9583 30.0622C16.9553 28.7561 16.6198 27.4724 15.9833 26.3319C15.3468 25.1915 14.4304 24.2319 13.3204 23.5437V23.5437ZM27.75 25.4372C26.6828 25.4372 25.6395 25.1207 24.7522 24.5278C23.8649 23.9349 23.1733 23.0922 22.7649 22.1062C22.3565 21.1203 22.2496 20.0354 22.4578 18.9887C22.666 17.942 23.1799 16.9805 23.9345 16.2259C24.6891 15.4713 25.6506 14.9574 26.6973 14.7492C27.744 14.541 28.8289 14.6478 29.8149 15.0562C30.8008 15.4646 31.6435 16.1562 32.2364 17.0436C32.8293 17.9309 33.1458 18.9741 33.1458 20.0413C33.1441 21.4719 32.575 22.8433 31.5635 23.8549C30.5519 24.8664 29.1805 25.4354 27.75 25.4372Z" fill="#DAEBDE"/>
<path d="M31.8204 23.5439C31.3208 24.137 30.6977 24.6138 29.9946 24.9409C29.2915 25.2679 28.5254 25.4374 27.75 25.4374C26.9745 25.4374 26.2084 25.2679 25.5053 24.9409C24.8022 24.6138 24.1791 24.137 23.6796 23.5439C22.5695 24.2321 21.6531 25.1917 21.0166 26.3322C20.3801 27.4726 20.0446 28.7564 20.0416 30.0624C20.0416 30.4713 20.2041 30.8634 20.4932 31.1526C20.7823 31.4417 21.1744 31.6041 21.5833 31.6041H33.9166C34.3255 31.6041 34.7176 31.4417 35.0067 31.1526C35.2959 30.8634 35.4583 30.4713 35.4583 30.0624C35.4553 28.7564 35.1198 27.4726 34.4833 26.3322C33.8468 25.1917 32.9304 24.2321 31.8204 23.5439V23.5439Z" fill="#9AD8A7"/>
<path d="M26.5275 8.93133L23.4441 5.848C23.1542 5.56324 22.7635 5.40451 22.3571 5.40635C21.9507 5.40819 21.5614 5.57045 21.274 5.85783C20.9867 6.1452 20.8244 6.53444 20.8226 6.94085C20.8207 7.34726 20.9794 7.73795 21.2642 8.02792L21.7159 8.47962H15.2842L15.7359 8.02792C16.022 7.73821 16.1818 7.34708 16.1805 6.93993C16.1792 6.53279 16.0169 6.14268 15.729 5.85479C15.4411 5.5669 15.051 5.4046 14.6438 5.40333C14.2367 5.40206 13.8456 5.56191 13.5559 5.848L10.4725 8.93133C10.3294 9.07445 10.2158 9.24437 10.1383 9.4314C10.0608 9.61843 10.0209 9.81889 10.0209 10.0213C10.0209 10.2238 10.0608 10.4243 10.1383 10.6113C10.2158 10.7983 10.3294 10.9682 10.4725 11.1113L13.5559 14.1947C13.8456 14.4808 14.2367 14.6406 14.6439 14.6393C15.051 14.638 15.4411 14.4757 15.729 14.1878C16.0169 13.8999 16.1792 13.5098 16.1805 13.1026C16.1817 12.6955 16.0219 12.3044 15.7358 12.0147L15.2841 11.563H21.7157L21.264 12.0147C20.9749 12.3038 20.8126 12.6959 20.8126 13.1047C20.8126 13.5135 20.975 13.9056 21.2641 14.1947C21.5532 14.4838 21.9453 14.6461 22.3541 14.6461C22.763 14.6461 23.1551 14.4837 23.4441 14.1946L26.5275 11.1112C26.6706 10.9681 26.7842 10.7982 26.8617 10.6112C26.9392 10.4242 26.9791 10.2237 26.9791 10.0213C26.9791 9.81885 26.9392 9.6184 26.8617 9.43138C26.7842 9.24436 26.6706 9.07445 26.5275 8.93133V8.93133Z" fill="#72B480"/>
</svg>
