<svg width="37" height="37" viewBox="0 0 37 37" fill="none" xmlns="http://www.w3.org/2000/svg">
<path d="M23.125 3.08301C17.9185 3.0852 13.4564 6.80555 12.5179 11.9268C16.9995 9.4744 22.6205 11.1193 25.0729 15.6008C26.5869 18.3676 26.5869 21.715 25.0729 24.4817C30.9332 23.4082 34.8137 17.7872 33.7402 11.9269C32.8014 6.80245 28.3347 3.08104 23.125 3.08301Z" fill="#72B480" fill-opacity="0.25"/>
<path d="M10.7917 33.9167C15.0489 33.9167 18.5 30.4655 18.5 26.2083C18.5 21.9511 15.0489 18.5 10.7917 18.5C6.53448 18.5 3.08334 21.9511 3.08334 26.2083C3.08334 30.4655 6.53448 33.9167 10.7917 33.9167Z" fill="#72B480"/>
<path d="M16.9583 10.792C12.2048 10.7925 8.22539 14.3958 7.75458 19.126C11.6639 17.4463 16.1947 19.2539 17.8744 23.1632C18.7086 25.1049 18.7086 27.304 17.8744 29.2457C22.9577 28.7403 26.6688 24.2097 26.1633 19.1264C25.6929 14.3954 21.7126 10.7916 16.9583 10.792Z" fill="#9AD8A8"/>
</svg>
