<svg width="37" height="38" viewBox="0 0 37 38" fill="none" xmlns="http://www.w3.org/2000/svg">
<path d="M23.125 3.58301C17.9185 3.5852 13.4564 7.30555 12.5179 12.4268C16.9995 9.9744 22.6205 11.6193 25.0729 16.1008C26.5869 18.8676 26.5869 22.215 25.0729 24.9817C30.9332 23.9082 34.8137 18.2872 33.7402 12.4269C32.8014 7.30245 28.3347 3.58104 23.125 3.58301Z" fill="#DAEBDE"/>
<path d="M10.7917 34.4167C15.0489 34.4167 18.5 30.9655 18.5 26.7083C18.5 22.4511 15.0489 19 10.7917 19C6.53448 19 3.08334 22.4511 3.08334 26.7083C3.08334 30.9655 6.53448 34.4167 10.7917 34.4167Z" fill="#72B480"/>
<path d="M16.9583 11.292C12.2048 11.2925 8.22539 14.8958 7.75458 19.626C11.6639 17.9463 16.1947 19.7539 17.8744 23.6632C18.7086 25.6049 18.7086 27.804 17.8744 29.7457C22.9577 29.2403 26.6688 24.7097 26.1633 19.6264C25.6929 14.8954 21.7126 11.2916 16.9583 11.292Z" fill="#9AD8A7"/>
</svg>
