<svg width="38" height="38" viewBox="0 0 38 38" fill="none" xmlns="http://www.w3.org/2000/svg">
<path d="M28.0105 23.0424L24.2704 26.4813C22.3473 28.1578 20.0878 29.4035 17.6436 30.1349L18.636 34.7648C18.6867 35.0012 18.7923 35.2224 18.9442 35.4104C19.0961 35.5985 19.2901 35.7482 19.5106 35.8475C19.7311 35.9468 19.9718 35.9928 20.2133 35.9819C20.4548 35.971 20.6904 35.9035 20.901 35.7848L26.9217 32.389C27.769 31.8742 28.431 31.1034 28.812 30.188C29.1929 29.2726 29.2733 28.2599 29.0415 27.2958L28.0105 23.0424ZM11.8678 14.0298L15.0879 10.2067L11.0721 9.23775C10.0959 8.89733 9.02937 8.92169 8.06966 9.30633C7.10995 9.69098 6.32186 10.4099 5.85094 11.3304L2.45898 17.3427C2.34013 17.5533 2.27249 17.7889 2.26153 18.0305C2.25057 18.2721 2.2966 18.5128 2.39589 18.7333C2.49519 18.9538 2.64496 19.1478 2.83311 19.2997C3.02126 19.4516 3.24251 19.5572 3.47898 19.6077L8.21613 20.6232C9.00148 18.2125 10.241 15.9745 11.8678 14.0298V14.0298ZM26.4645 14.0921C26.9218 14.0921 27.3689 13.9564 27.7492 13.7023C28.1295 13.4482 28.4259 13.0871 28.6009 12.6645C28.776 12.242 28.8218 11.777 28.7325 11.3284C28.6433 10.8798 28.4231 10.4678 28.0997 10.1444C27.7762 9.82097 27.3642 9.60072 26.9156 9.5115C26.467 9.42227 26.0021 9.46806 25.5795 9.64309C25.157 9.81812 24.7958 10.1145 24.5417 10.4948C24.2876 10.8751 24.152 11.3222 24.152 11.7796C24.1522 12.3928 24.3959 12.9809 24.8295 13.4145C25.2632 13.8481 25.8512 14.0918 26.4645 14.0921V14.0921Z" fill="#72B480"/>
<path d="M35.51 3.67928C35.4404 3.41523 35.302 3.17436 35.1089 2.98127C34.9158 2.78819 34.675 2.6498 34.4109 2.58024C31.2484 1.75817 27.918 1.84632 24.8034 2.83454C21.6888 3.82275 18.9168 5.67082 16.8067 8.16579L11.8678 14.0298C9.40052 16.9726 7.83533 20.5651 7.36024 24.3759C7.32977 24.6101 7.35349 24.8481 7.42958 25.0717C7.50567 25.2953 7.63209 25.4984 7.79909 25.6654L12.5784 30.4447C12.7215 30.5879 12.8914 30.7015 13.0784 30.779C13.2655 30.8565 13.4659 30.8964 13.6684 30.8964C13.7128 30.8964 13.7572 30.8941 13.8024 30.8904C17.6716 30.5706 21.3383 29.0263 24.2703 26.4814L29.9175 21.2888C32.4214 19.1843 34.2762 16.4121 35.2662 13.2947C36.2562 10.1773 36.3407 6.84284 35.51 3.67928V3.67928ZM26.4644 14.092C26.0071 14.092 25.56 13.9564 25.1797 13.7023C24.7994 13.4482 24.503 13.087 24.3279 12.6645C24.1529 12.2419 24.1071 11.777 24.1964 11.3284C24.2856 10.8798 24.5058 10.4678 24.8292 10.1444C25.1526 9.82094 25.5647 9.6007 26.0133 9.51147C26.4619 9.42224 26.9268 9.46804 27.3494 9.64306C27.7719 9.81809 28.1331 10.1145 28.3872 10.4948C28.6413 10.8751 28.7769 11.3222 28.7769 11.7795C28.7767 12.3928 28.533 12.9808 28.0994 13.4145C27.6657 13.8481 27.0777 14.0918 26.4644 14.092V14.092Z" fill="#9AD8A7"/>
</svg>
